<?xml version="1.0" encoding="utf-8"?>
<!-- Generator: Adobe Illustrator 23.0.3, SVG Export Plug-In . SVG Version: 6.00 Build 0)  -->
<svg version="1.1" id="Layer_1" xmlns="http://www.w3.org/2000/svg" xmlns:xlink="http://www.w3.org/1999/xlink" x="0px" y="0px"
	 viewBox="0 0 515.5 147.8" style="enable-background:new 0 0 515.5 147.8;" xml:space="preserve">
<style type="text/css">
	.st0{clip-path:url(#SVGID_2_);fill:#763F98;}
	.st1{fill:#763F98;}
	.st2{fill:#FFFFFF;}
	.st3{font-family:'Montserrat-Medium';}
	.st4{font-size:24.3292px;}
</style>
<g>
	<g>
		<defs>
			<path id="SVGID_1_" d="M149.9,66.5c0,13.1-9.5,21-25.1,21h-16.5V107h-6.5V45.4h23C140.5,45.4,149.9,53.3,149.9,66.5z M143.4,66.5
				c0-9.8-6.5-15.5-18.8-15.5h-16.4v30.8h16.4C136.9,81.8,143.4,76.2,143.4,66.5z M159.4,76.2c0-18,13.7-31.3,32.3-31.3
				c9,0,17.1,3,22.5,9l-4.1,4.1c-5-5.1-11.2-7.3-18.2-7.3c-14.9,0-26,10.9-26,25.5c0,14.6,11.2,25.5,26,25.5c7,0,13.2-2.2,18.2-7.4
				l4.1,4.1c-5.5,6-13.5,9.1-22.6,9.1C173.2,107.5,159.4,94.2,159.4,76.2z M221.3,76.2c0-18,13.7-31.3,32.3-31.3c9,0,17.1,3,22.5,9
				L272,58c-5-5.1-11.2-7.3-18.2-7.3c-14.9,0-26,10.9-26,25.5c0,14.6,11.2,25.5,26,25.5c7,0,13.2-2.2,18.2-7.4l4.1,4.1
				c-5.5,6-13.5,9.1-22.6,9.1C235.1,107.5,221.3,94.2,221.3,76.2z"/>
		</defs>
		<clipPath id="SVGID_2_">
			<use xlink:href="#SVGID_1_"  style="overflow:visible;"/>
		</clipPath>
		<rect x="67.9" y="25.3" class="st0" width="241.8" height="105.7"/>
	</g>
</g>
<rect x="299.5" y="35.2" class="st1" width="181.5" height="81"/>
<polygon class="st1" points="291.7,116.2 288,116.2 288.3,35.2 292,35.2 "/>
<g>
	<text transform="matrix(1 0 0 1 308.9642 61.181)" class="st2 st3 st4">PLUM  </text>
	<text transform="matrix(1 0 0 1 308.9642 84.981)" class="st2 st3 st4">C</text>
	<text transform="matrix(1 0 0 1 346.9642 84.981)" class="st2 st3 st4">MMUNITY </text>
	<text transform="matrix(1 0 0 1 308.9642 108.781)" class="st2 st3 st4">CENTER</text>
	<path class="st2" d="M336.7,67.8c-5.1,0-9,3.8-9,8.6l0,0c0,2.7,1.2,5,3.1,6.6l0,0c-1-2.1-1-4.7,0.1-6.7c1-2,3.8-3.7,6-2.3
		c0.4,0.2,0.7,0.6,0.9,1c0.1,0.2,0.1,0.4,0.1,0.6c-0.1,0.3-0.4,0.4-0.7,0.5c-0.4,0.2-0.9,0.5-1.3,0.8s-0.8,0.7-1.2,1
		c-0.1,0.1-0.2,0.2-0.2,0.3l-0.1,0.1l-0.1,0.1c-0.1,0.1-0.1,0.2-0.2,0.2c-0.1,0.1-0.1,0.2-0.2,0.2c-0.1,0.2-0.2,0.3-0.3,0.4
		c0,0.1-0.1,0.1-0.1,0.2s-0.1,0.1-0.1,0.2c-0.1,0.2-0.2,0.3-0.2,0.3s0.1-0.1,0.2-0.3c0,0,0.1-0.1,0.1-0.2s0.1-0.1,0.1-0.2
		c0.1-0.1,0.2-0.3,0.3-0.4c0.1-0.1,0.1-0.1,0.2-0.2s0.1-0.2,0.2-0.2l0.1-0.1l0.1-0.1c0.1-0.1,0.2-0.2,0.3-0.2
		c0.4-0.3,0.8-0.6,1.2-0.9c1.4-0.9,4.1-2.1,4.9,0.1c0.3,0.7,0.2,1.5,0,2.3c-0.5,1.9-2.1,3.7-3.8,4.7c0,0-0.1,0-0.1,0.1
		c-0.6,0.3-1.2,0.5-1.8,0.7c0.5,0.1,0.9,0.1,1.4,0.1c5.1,0,9-3.8,9-8.6l0,0C345.7,71.6,341.8,67.8,336.7,67.8 M338.2,74
		c0-0.2-0.1-0.4-0.1-0.6c-0.1-0.2-0.2-0.4-0.2-0.6c-0.1-0.2-0.2-0.4-0.2-0.5c-0.1-0.2-0.1-0.3-0.1-0.5c0-0.1,0.1-0.3,0.1-0.3l0,0
		l0,0l0,0l0,0l0,0l0,0l0,0l0,0c0,0,0,0,0,0.1c0,0,0,0,0,0.1v0.1v0.1c0,0.2,0,0.3,0,0.5s0.1,0.4,0.1,0.6c0.1,0.2,0.1,0.4,0.1,0.6
		s0,0.3,0,0.4v0.1c-0.8-0.3-1.4-1.3-1.2-2.2c0.1-0.5,0.3-1,0.6-1.4c0.2-0.3,0.5-0.6,0.8-0.8c-0.1,0.4-0.1,0.7,0.3,1.1
		c0.2,0.2,0.5,0.5,0.7,0.7c0.1,0.1,0.2,0.3,0.3,0.4C339.6,72.8,339.1,73.7,338.2,74L338.2,74 M342.5,73.2c-0.1,0.1-0.1,0.2-0.3,0.3
		c-0.1,0.1-0.2,0.1-0.3,0.1c-0.6,0.1-1.1,0.2-1.6,0.5s-0.9,0.7-1.3,1.2c-0.2,0-0.4,0.1-0.6,0.2c0-0.2,0-0.5-0.2-0.6
		c-0.1-0.1,1.8-1.6,2-1.7c0.5-0.3,1-0.8,1.6-0.8h0.1c0.3,0,0.5,0.1,0.6,0.3C342.6,72.9,342.6,73.1,342.5,73.2"/>
</g>
<path class="st1" d="M75.2,75.7c0-8.3-7.1-15.1-15.7-15.1s-15.7,6.8-15.7,15.1s7.1,15.1,15.7,15.1c2.1,0,4.2-0.4,6-1.1
	c1.4,3.8,4.8,5.3,8,5.3c4.5,0,9.1-2.9,12.7-7.8c3.5-4.9,5.5-11.1,5.5-17c0-6.6-2.5-13-6.9-17.6c-5.2-5.5-12.8-8.4-22.1-8.4
	c-13.7,0-22.3,6.1-27,11.3c-5.8,6.4-9.2,14.8-9.2,23c0,8.7,3.5,16.6,9.7,22.2s14.6,8.6,23.8,8.6c8.6,0,17.2-2.8,24.6-8.2l0.8-0.6
	l-2.3-4l-1,0.7c-6.9,4.8-14.4,7.4-21.6,7.4c-16.2,0-27.9-11-27.9-26.3c0-7.5,3.1-15,8.6-20.4c5.8-5.8,13.6-9,22.1-9
	C79.6,48.7,87,59.8,87,70.1s-7,20-12.4,20c-3.5,0-3.9-2.5-3.9-3.6c0-0.1,0-0.2,0-0.3C73.5,83.5,75.2,79.8,75.2,75.7z M61.2,67.1
	L61.2,67.1L61.2,67.1L61.2,67.1c-0.1,0.1-0.1,0.2-0.2,0.2c0,0,0,0.1-0.1,0.1c0,0,0,0.1-0.1,0.2c0,0.1,0,0.1-0.1,0.2
	c-0.1,0.3-0.1,0.6,0,0.9c0,0.3,0.1,0.7,0.2,1c0.1,0.3,0.2,0.7,0.2,1c0.1,0.3,0.1,0.6,0,0.8c0,0.1,0,0.1,0,0.2
	c-1.4-0.5-2.3-2.3-2.1-3.7c0.1-0.9,0.5-1.7,1-2.5c0.4-0.5,0.8-1,1.3-1.4c-0.2,0.6-0.1,1.3,0.5,1.9c0.2,0.3,0.5,0.5,0.8,0.7
	c0.2,0.2,0.3,0.3,0.5,0.5l0.1,0.1c0.1,0.1,0.2,0.2,0.3,0.3c0.1,0.1,0.1,0.2,0.2,0.3c0,0.1,0.1,0.2,0.1,0.3l0.1,1.2
	c0,0.3-0.1,0.5-0.2,0.7c-0.1,0.2-0.2,0.4-0.3,0.5c-0.3,0.3-0.6,0.6-1,0.8c-0.1,0.1-0.2,0.1-0.3,0.2v-0.1c0-0.3-0.1-0.6-0.2-1
	c-0.1-0.3-0.3-0.6-0.4-0.9c-0.1-0.3-0.3-0.6-0.4-0.9C61,68.3,61,68,61,67.8s0.1-0.4,0.2-0.6l0,0V67.1L61.2,67.1L61.2,67.1L61.2,67.1
	z M62.4,72.7c0.2-0.2,0.6-0.6,1.1-1c0.1-0.1,0.3-0.2,0.4-0.3c0.1-0.1,0.2-0.2,0.3-0.3c0.7-0.5,1.3-1,1.4-1c0.6-0.4,1.2-0.9,1.9-1.2
	c0.3-0.1,0.6-0.2,0.8-0.2c0.1,0,0.1,0,0.2,0c0,0,0,0,0.1,0c0.4,0,0.9,0.1,1,0.6c0.1,0.3,0,0.6-0.1,0.8c-0.1,0.2-0.3,0.4-0.4,0.5
	s-0.3,0.2-0.4,0.2l0,0c-0.4,0.1-0.8,0.2-1.2,0.3c-0.6,0.1-1.1,0.3-1.7,0.6c-0.5,0.3-0.9,0.7-1.3,1.1c-0.1,0.1-0.2,0.2-0.4,0.4
	c-0.2,0.2-0.3,0.4-0.5,0.6l0,0c-0.4,0-0.7,0.2-1,0.3c0-0.3,0-0.6-0.2-0.8L62.4,72.7z M49.1,86.3c-1.4-3.4-1.3-7.6,0.4-10.8
	c1.8-3.4,6.5-6.3,10.3-3.9c0.6,0.4,1.2,1.1,1.5,1.8c0.1,0.3,0.2,0.7,0.1,1.1c-0.2,0.5-0.7,0.6-1.2,0.8c-0.8,0.4-1.5,0.9-2.3,1.4
	c-0.7,0.5-1.4,1.1-2,1.7c-0.1,0.2-0.3,0.3-0.4,0.4c-0.1,0.1-0.1,0.1-0.2,0.2c-0.1,0.1-0.1,0.1-0.2,0.2c-0.1,0.1-0.2,0.3-0.4,0.4
	c-0.1,0.1-0.2,0.3-0.3,0.4c-0.2,0.3-0.4,0.5-0.5,0.7c-0.1,0.1-0.1,0.2-0.2,0.3c-0.1,0.1-0.1,0.2-0.2,0.3c-0.2,0.3-0.3,0.5-0.3,0.5
	s0.1-0.2,0.4-0.5c0.1-0.1,0.1-0.2,0.2-0.3c0.1-0.1,0.2-0.2,0.2-0.3c0.2-0.2,0.4-0.5,0.6-0.7c0.1-0.1,0.2-0.3,0.3-0.4
	s0.3-0.3,0.4-0.4c0.1-0.1,0.1-0.1,0.2-0.2c0.1-0.1,0.1-0.1,0.2-0.2c0.1-0.1,0.3-0.3,0.4-0.4c0.6-0.5,1.3-1.1,2.1-1.6
	c1.1-0.7,2.6-1.5,4.1-1.8c0.4-0.1,0.9-0.2,1.3-0.2c0.2,0,0.4,0,0.6,0c0.2,0,0.3,0.1,0.5,0.1c0.6,0.2,1.1,0.5,1.5,1
	c0.2,0.3,0.4,0.6,0.5,0.9c0.1,0.2,0.1,0.4,0.2,0.6c0.3,1.1,0.2,2.2-0.1,3.3c-0.2,0.9-0.6,1.8-1.1,2.6c-1,1.8-2.4,3.4-4,4.6
	c-0.5,0.3-0.9,0.7-1.4,0.9c-0.1,0-0.1,0.1-0.2,0.1c-0.7,0.4-1.5,0.7-2.3,1C54.4,89.8,51.4,88.3,49.1,86.3z"/>
</svg>
