<svg width="160" height="68" viewBox="0 0 160 68" fill="none" xmlns="http://www.w3.org/2000/svg">
<path d="M6.15273 0C2.75971 0 0 2.75971 0 6.15273V41.702H79.5599L82.9427 37.5753H4.12679V6.15273C4.12679 5.03591 5.03591 4.12679 6.15273 4.12679H155.873V35.551C155.873 36.6678 154.964 37.577 153.847 37.577H112.864L109.712 41.7037H153.847C157.24 41.7037 160 38.944 160 35.551V0H6.15273Z" fill="#8630AA"/>
<path d="M81.4411 6.36377L75.9881 7.27289V12.0534H72.498V16.4152H75.9881V20.2253V20.3053V24.8135C75.9881 25.7839 76.1516 26.6079 76.4784 27.2854C76.8053 27.9647 77.2599 28.5163 77.8421 28.9402C78.4227 29.3642 79.1019 29.674 79.8783 29.8681C80.6529 30.0622 81.5024 30.1592 82.4235 30.1592C83.0534 30.1592 83.6952 30.1235 84.349 30.0503C85.0027 29.9771 85.6343 29.8323 86.2387 29.6144V25.2663C86.2387 25.1863 86.1502 25.1454 86.0821 25.1897C85.8505 25.3395 85.5458 25.44 85.1661 25.4876C84.6929 25.5489 84.3115 25.5779 84.0204 25.5779C82.6976 25.5779 81.6795 25.028 81.5126 23.6336C81.4633 23.2336 81.4394 22.7926 81.4394 22.3074C81.4394 20.3445 81.4394 18.3815 81.4394 16.4186H86.237V12.0534H81.4394V6.36377H81.4411Z" fill="#8630AA"/>
<path d="M27.6564 15.7104C27.4794 15.1146 27.2376 14.5425 26.9056 14.0165C25.1759 11.2653 20.8721 10.9384 18.2724 12.5251C17.8366 12.7924 17.4603 13.0954 17.1454 13.4342C16.8304 13.773 16.5887 14.1135 16.4184 14.4523H16.3452V12.0535H11.1118V29.7201H16.5648C16.5648 29.7201 16.5648 20.9302 16.5648 20.9234C16.5648 19.6295 16.7044 17.8555 17.857 17.0009C18.8496 16.2637 20.4329 16.0628 21.4526 16.8528C22.6869 17.8062 22.6699 19.6619 22.6699 21.0698V29.7218H28.1229V19.9785C28.1246 18.5859 28.0633 17.0826 27.6564 15.7104Z" fill="#8630AA"/>
<path d="M46.8451 14.1083C46.13 13.2962 45.2567 12.6731 44.2284 12.2355C43.1984 11.7997 42.0526 11.5818 40.7928 11.5818C39.4359 11.5818 38.1574 11.7997 36.9571 12.2355C35.7569 12.6714 34.715 13.2962 33.8314 14.1083C32.9461 14.9203 32.2498 15.8959 31.7407 17.0348C31.2317 18.1738 30.978 19.4472 30.978 20.8517C30.978 22.258 31.2317 23.5297 31.7407 24.6687C32.2498 25.8076 32.9461 26.7832 33.8314 27.5952C34.7184 28.409 35.8301 29.056 36.9571 29.4663C38.1574 29.9021 39.4342 30.12 40.7928 30.12C42.2229 30.12 43.6036 29.817 44.9366 29.2109C46.2696 28.6048 47.3728 27.7451 48.2445 26.6299L44.6523 24.083C43.5389 25.3429 42.0594 25.9762 40.5374 25.9762C38.4655 25.9762 36.8499 24.5665 36.4293 22.5593H49.0804V20.85C49.0804 19.4455 48.8863 18.1721 48.4982 17.0331C48.1117 15.8959 47.5601 14.9203 46.8451 14.1083ZM36.431 18.8513C36.4549 18.4155 36.5587 17.9967 36.7392 17.5966C36.9214 17.1965 37.175 16.8458 37.5036 16.5428C37.8305 16.2397 38.2237 15.9912 38.6851 15.7971C39.1448 15.603 39.6794 15.506 40.2837 15.506C41.278 15.506 42.0884 15.8329 42.72 16.4883C43.3499 17.1421 43.6529 17.9303 43.6291 18.8513H36.431Z" fill="#8630AA"/>
<path d="M147.889 16.8085C147.719 15.7905 147.398 14.9069 146.925 14.1544C146.452 13.4036 145.791 12.8162 144.943 12.3906C143.936 11.885 142.712 11.7539 141.6 11.7539C140.946 11.7539 140.338 11.839 139.782 12.0076C139.223 12.1778 138.728 12.3957 138.29 12.6613C137.854 12.9286 137.478 13.2317 137.163 13.5704C136.848 13.9092 136.606 14.2497 136.436 14.5885H136.363V12.1931H131.128V29.8597H136.581V21.063C136.581 20.4825 136.617 19.9241 136.69 19.3912C136.761 18.8583 136.913 18.3799 137.144 17.956C137.374 17.5321 137.708 17.1933 138.144 16.9379C139.531 16.1276 141.687 16.5481 142.306 18.1194C142.489 18.5808 142.597 19.083 142.633 19.6278C142.669 20.1726 142.688 20.7004 142.688 21.2094V29.8614H148.141V20.1181C148.142 18.9298 148.057 17.8266 147.889 16.8085Z" fill="#8630AA"/>
<path d="M126.405 14.2821C125.69 13.47 124.817 12.8469 123.788 12.4094C122.758 11.9735 121.613 11.7556 120.353 11.7556C118.996 11.7556 117.717 11.9735 116.517 12.4094C115.317 12.8452 114.275 13.47 113.391 14.2821C112.506 15.0942 111.81 16.0697 111.301 17.2086C110.792 18.3476 110.538 19.621 110.538 21.0256C110.538 22.4318 110.792 23.7036 111.301 24.8425C111.81 25.9815 112.506 26.957 113.391 27.7691C114.282 28.5863 115.383 29.2281 116.517 29.6401C117.717 30.0759 118.994 30.2938 120.353 30.2938C121.783 30.2938 123.164 29.9908 124.497 29.3847C125.83 28.7786 126.933 27.9189 127.805 26.8038L124.212 24.2569C123.099 25.5167 121.619 26.15 120.097 26.15C118.024 26.15 116.41 24.7455 115.989 22.7332H128.64V21.0256C128.64 19.621 128.446 18.3476 128.058 17.2086C127.672 16.0697 127.12 15.0959 126.405 14.2821ZM115.991 19.0269C116.015 18.591 116.119 18.1722 116.299 17.7721C116.481 17.3721 116.735 17.0214 117.064 16.7183C117.391 16.4153 117.784 16.1667 118.245 15.9726C119.561 15.4193 121.27 15.6151 122.28 16.6638C122.91 17.3176 123.213 18.1058 123.189 19.0269H115.991Z" fill="#8630AA"/>
<path d="M102.559 14.7365H102.486C102.268 14.4215 101.977 14.0998 101.614 13.7729C101.251 13.446 100.814 13.1498 100.305 12.8825C99.7957 12.6169 99.2203 12.3973 98.5784 12.2288C97.9366 12.0602 97.2267 11.9751 96.452 11.9751C95.1922 11.9751 94.0652 12.2356 93.0709 12.7565C92.0767 13.2775 91.2357 13.9619 90.5445 14.8114C89.8533 15.6592 89.3204 16.6416 88.9458 17.755C88.5696 18.8701 88.3823 20.0091 88.3823 21.1718C88.3823 22.5049 88.5883 23.729 89.0003 24.8441C89.7784 26.9483 91.4093 28.7427 93.5085 29.6246C94.5742 30.0741 95.7625 30.2971 97.0717 30.2971C97.8957 30.2971 98.7742 30.1217 99.7072 29.7693C100.64 29.4186 101.408 28.8415 102.281 27.9698H102.561V29.6791C102.561 30.9389 102.167 31.9757 101.379 32.7878C100.591 33.5999 98.9257 34.0051 97.2522 34.0051C96.1371 34.0051 95.1122 33.7991 94.1809 33.3871C93.248 32.9751 92.3576 32.4167 91.5098 31.7153L88.8505 35.6888C90.0559 36.4515 91.2323 37.2755 92.5261 37.885C95.3284 39.2078 98.8355 39.2896 101.742 38.251C102.438 38.0025 103.109 37.6807 103.73 37.2789C104.208 36.9708 104.655 36.6116 105.051 36.2047C106.514 34.698 107.341 32.5835 107.532 29.8613C107.561 29.451 107.578 29.0271 107.578 28.5895V12.4109H102.561V14.7365H102.559ZM102.581 21.4255C102.446 22.5389 102.023 23.4515 101.304 24.1699C100.058 25.4161 98.0966 25.8911 96.4691 25.1335C95.5106 24.6875 94.5827 23.7971 94.1605 22.7892C93.7298 21.7626 93.7332 20.5045 94.1605 19.4813C94.581 18.4768 95.4646 17.6052 96.4691 17.137C97.494 16.6603 98.8798 16.6722 99.9047 17.137C100.438 17.3804 100.904 17.7005 101.304 18.1006C102.023 18.819 102.446 19.7333 102.581 20.8348C102.605 21.0288 102.605 21.2314 102.581 21.4255Z" fill="#8630AA"/>
<path d="M126.914 61.3315C126.914 61.3281 126.911 61.3264 126.908 61.3281C125.251 62.101 123.152 63.3098 121.009 62.7259C119.027 62.1862 117.694 60.5995 117.59 58.5327C117.469 56.0998 119.332 54.1914 121.751 54.1931C122.307 54.1931 122.828 54.3207 123.314 54.5744C123.799 54.8298 124.173 55.1499 124.441 55.538L128.04 51.7568C127.19 50.8852 126.191 50.2723 125.04 49.9216C123.889 49.5709 122.793 49.3938 121.751 49.3938C120.394 49.3938 119.115 49.6117 117.915 50.0475C116.715 50.4834 115.673 51.1082 114.789 51.9203C112.929 53.6278 111.936 56.1628 111.936 58.6638C111.936 60.07 112.19 61.3417 112.699 62.4807C113.4 64.0521 114.56 65.3732 116.024 66.2772C117.413 67.1352 119.015 67.6119 120.634 67.7737C121.708 67.8809 122.818 67.8452 123.894 67.6749C124.766 67.5353 125.617 67.2885 126.456 67.0178C127.006 66.8407 127.589 66.5973 128.113 66.347C127.696 65.3085 127.185 62.496 126.914 61.3315Z" fill="#8630AA"/>
<path d="M27.3266 54.5115C27.0848 53.3844 26.6541 52.4344 26.0361 51.6581C25.4181 50.8818 24.5941 50.2944 23.5641 49.8944C21.0649 48.9239 17.8949 49.135 15.4025 50.0033C14.0456 50.4766 12.8573 51.1848 11.8409 52.1297L14.7487 55.1107C15.331 54.457 15.9898 53.9411 16.7304 53.5649C18.2575 52.7886 20.2681 52.7256 21.6386 53.856C22.3298 54.4263 22.6737 55.1959 22.6737 56.1646C21.9229 56.1646 21.1041 56.1765 20.2205 56.2003C18.4652 56.248 16.6861 56.4608 15.0041 56.9817C12.5423 57.7428 10.7139 59.738 10.7139 62.3803C10.7139 63.9057 11.3744 65.4788 12.6036 66.4509C14.6653 68.0819 17.8217 68.1823 20.183 67.2136C21.1875 66.8016 21.9944 66.124 22.6005 65.1774H22.672V67.3941H27.6892V58.4152C27.6892 56.9409 27.5683 55.6385 27.3266 54.5115ZM22.6737 60.8191C22.6737 61.3775 22.558 61.861 22.3281 62.273C22.0966 62.685 21.7884 63.0255 21.4003 63.2911C21.0121 63.5584 20.5695 63.7644 20.0741 63.9091C19.5769 64.0538 19.0611 64.127 18.5282 64.127C17.9221 64.127 17.3399 63.9704 16.7832 63.6537C16.2248 63.3388 15.9473 62.8536 15.9473 62.1998C15.9473 61.5937 16.1482 61.1222 16.5465 60.7817C17.8251 59.6955 19.7302 59.6546 21.3271 59.6546H22.672V60.8191H22.6737Z" fill="#8630AA"/>
<path d="M147.182 54.5098C146.94 53.4679 146.54 52.4822 145.883 51.6582C143.542 48.7197 138.443 48.8917 135.249 50.0034C133.893 50.4767 132.704 51.1849 131.688 52.1298L134.596 55.1108C135.178 54.4571 135.837 53.9412 136.576 53.565C138.062 52.8091 140.158 52.7631 141.484 53.8561C142.175 54.4264 142.519 55.1959 142.519 56.1646C141.768 56.1646 140.949 56.1766 140.066 56.2004C137.624 56.2668 134.718 56.5715 132.65 58.0544C131.242 59.0639 130.559 60.683 130.559 62.3804C130.559 63.2776 130.728 64.0658 131.068 64.7434C131.739 66.0798 133.055 67.0622 134.466 67.4878C136.257 68.0292 138.3 67.9219 140.028 67.2154C141.033 66.8034 141.84 66.1258 142.446 65.1792H142.517V67.3958H147.534V58.417C147.538 57.1674 147.48 55.7969 147.182 54.5098ZM142.521 60.8192C142.521 61.3776 142.405 61.8611 142.175 62.2731C141.944 62.6851 141.635 63.0256 141.247 63.2912C140.859 63.5585 140.416 63.7645 139.921 63.9092C139.424 64.0539 138.908 64.1271 138.375 64.1271C137.769 64.1271 137.187 63.9705 136.63 63.6538C136.072 63.3389 135.794 62.8537 135.794 62.1999C135.794 61.5938 135.995 61.1222 136.393 60.7834C137.667 59.7024 139.584 59.6564 141.174 59.6564H142.519V60.8192H142.521Z" fill="#8630AA"/>
<path d="M60.2062 54.4025C60.0002 53.4696 59.6614 52.6575 59.1881 51.9663C58.7148 51.2751 58.073 50.7303 57.2609 50.3302C56.3467 49.8791 55.2724 49.731 54.2612 49.731C53.2601 49.731 52.2591 49.8944 51.3346 50.2877C50.514 50.6367 49.8433 51.2036 49.3036 51.9101C49.0652 52.2217 48.8541 52.552 48.6635 52.8942C48.6771 52.935 48.6481 52.8516 48.6635 52.8942C48.403 52.1485 47.7152 51.4368 47.1108 50.9567C46.4519 50.4341 45.6756 50.0663 44.8533 49.891C44.3153 49.7752 43.7603 49.7327 43.2104 49.7327C41.6084 49.7327 39.8838 50.3575 38.7755 51.5509C38.4605 51.8897 38.2188 52.2302 38.0485 52.569H37.9753V50.1702H32.7402V67.8367H38.1933V59.0401C38.1933 58.4595 38.229 57.9011 38.3022 57.3682C38.3737 56.8354 38.5252 56.357 38.7568 55.9331C38.9866 55.5092 39.3203 55.1704 39.7561 54.915C40.192 54.6613 40.7623 54.5336 41.4654 54.5336C42.4767 54.5336 43.2683 55.0597 43.6105 56.025C43.8863 56.8064 43.9016 57.6764 43.9016 58.497V67.8385H49.3547V59.0043C49.4108 58.3284 49.37 57.6321 49.5181 56.9682C49.627 56.483 49.8092 56.059 50.0629 55.6964C50.3166 55.3338 50.6553 55.0478 51.081 54.8418C51.5049 54.6358 52.0326 54.5319 52.6626 54.5319C54.3633 54.5319 55.0613 56.0318 55.0613 57.5487V67.8367H60.5144V57.404C60.5161 56.3348 60.4122 55.3355 60.2062 54.4025Z" fill="#8630AA"/>
<path d="M97.9416 54.5096C97.676 54.4364 97.4155 54.3887 97.1618 54.3649C96.9082 54.3411 96.6613 54.3292 96.4196 54.3292C95.6228 54.3292 94.952 54.4739 94.4089 54.7633C93.8658 55.0527 93.4317 55.4017 93.1048 55.8103C92.778 56.2206 92.543 56.6667 92.3983 57.1468C92.2536 57.6286 92.1804 58.0491 92.1804 58.41V67.6595H86.2388V49.6406H91.9625V52.2487H92.0357C92.4937 51.3243 93.1457 50.5701 93.9918 49.9862C94.8363 49.4022 95.8152 49.1111 96.9269 49.1111C97.1687 49.1111 97.4036 49.1247 97.6334 49.1468C97.8633 49.1707 98.0505 49.2081 98.1952 49.2558L97.9416 54.5096Z" fill="#8630AA"/>
<path d="M79.807 51.4828C79.0919 50.6707 78.2186 50.0476 77.1903 49.61C76.1603 49.1742 75.0145 48.9563 73.7547 48.9563C72.3978 48.9563 71.1193 49.1742 69.919 49.61C68.7188 50.0459 67.6769 50.6707 66.7933 51.4828C65.908 52.2948 65.2117 53.2704 64.7026 54.4093C64.1936 55.5483 63.9399 56.8217 63.9399 58.2263C63.9399 59.6325 64.1936 60.9042 64.7026 62.0432C65.2117 63.1822 65.908 64.1577 66.7933 64.9697C67.6803 65.7835 68.792 66.4305 69.919 66.8408C71.1193 67.2766 72.3961 67.4945 73.7547 67.4945C75.1848 67.4945 76.5655 67.1915 77.8985 66.5854C79.2315 65.9793 80.3347 65.1196 81.2064 64.0045L77.6142 61.4593C76.5008 62.7191 75.0213 63.3524 73.4993 63.3524C71.4274 63.3524 69.8118 61.9428 69.3913 59.9355H82.0423V58.2263C82.0423 56.8217 81.8482 55.5483 81.4601 54.4093C81.0736 53.2704 80.522 52.2965 79.807 51.4828ZM69.393 56.2276C69.4168 55.7917 69.5206 55.3729 69.7011 54.9728C69.8833 54.5728 70.1369 54.222 70.4655 53.919C70.7924 53.616 71.1857 53.3674 71.647 53.1733C72.1067 52.9792 72.6413 52.8822 73.2457 52.8822C74.2399 52.8822 75.0503 53.2091 75.6819 53.8645C76.3118 54.5183 76.6148 55.3065 76.591 56.2276H69.393Z" fill="#8630AA"/>
<path d="M108.417 48.1476C108.417 48.5562 108.337 48.9375 108.175 49.2933C108.013 49.6492 107.799 49.9556 107.53 50.2127C107.261 50.4715 106.937 50.6758 106.561 50.8256C106.185 50.9771 105.792 51.052 105.383 51.052C104.521 51.052 103.801 50.7677 103.221 50.1974C102.64 49.627 102.349 48.9443 102.349 48.1476C102.349 47.7594 102.424 47.3883 102.576 47.0342C102.725 46.6783 102.942 46.3719 103.221 46.1148C103.5 45.8561 103.823 45.6467 104.189 45.4849C104.556 45.3232 104.952 45.2432 105.383 45.2432C105.792 45.2432 106.185 45.3181 106.561 45.4696C106.937 45.6211 107.259 45.8254 107.53 46.0825C107.799 46.3413 108.013 46.6477 108.175 47.0018C108.337 47.3559 108.417 47.739 108.417 48.1476ZM102.737 67.6613V53.2788H108.03V67.6613H102.737Z" fill="#8630AA"/>
<path d="M64.4982 20.9003L61.1479 24.2505L67.0936 30.1961L70.4438 26.8459L64.4982 20.9003Z" fill="#8630AA"/>
<path d="M61.1526 17.5336L64.4979 20.8773L70.4447 14.9323L67.0925 11.5818L61.1475 17.5268L61.1526 17.5336Z" fill="#8630AA"/>
<path d="M57.8024 20.8945L57.8076 20.8893L57.8024 20.8841L57.7972 20.8772L57.792 20.8841L57.7972 20.8893L57.792 20.8945L57.7972 20.8997L57.8024 20.8945Z" fill="#8630AA"/>
<path d="M62.789 20.8943L62.7839 20.8892L62.789 20.8841L59.4385 17.5336L53.4867 11.5818L50.1362 14.9323L56.0881 20.8841L56.0932 20.8892L56.0881 20.8943L50.1362 26.8462L53.4867 30.1966L62.789 20.8943Z" fill="#8630AA"/>
</svg>
